<svg xmlns="http://www.w3.org/2000/svg" viewBox="0 0 24 24"><path fill="#6766DB" d="M21.333 18.904 12 15.149l-9.333 3.755a.5.5 0 0 1-.373-.927l9.52-3.83a.501.501 0 0 1 .373 0l9.52 3.83a.5.5 0 1 1-.374.927zM1.469 17.741a.5.5 0 0 1 .081-.703l7.943-6.307L10.974.438a.501.501 0 0 1 .99.142l-1.51 10.49a.5.5 0 0 1-.185.32l-8.1 6.43a.495.495 0 0 1-.7-.079zm20.36.081-8.109-6.429a.5.5 0 0 1-.185-.321L12.035.581a.5.5 0 0 1 .99-.142l1.472 10.294 7.953 6.306a.498.498 0 1 1-.621.783z"/><path fill="#110638" d="M12 24C5.383 24 0 18.617 0 12S5.383 0 12 0s12 5.383 12 12-5.383 12-12 12zm0-23C5.935 1 1 5.935 1 12s4.935 11 11 11 11-4.935 11-11S18.065 1 12 1z"/></svg>